<svg width="346.66666666666663" height="272" xmlns="http://www.w3.org/2000/svg">

 <metadata>image/svg+xmlOpenclipartMasked man2006-11-07T01:05:32Based on an image from http://www.wpclipart.com/holiday/halloween/index.htmlhttps://openclipart.org/detail/1319/masked-man-by-liftarnliftarnexternalsourcefacehalloweenhoodmanmaskspookywpclipart</metadata>
 <g>
  <title>background</title>
  <rect fill="none" id="canvas_background" height="402" width="582" y="-1" x="-1"/>
 </g>
 <g>
  <title>Layer 1</title>
  <g id="g4843">
   <path fill="#000000" d="m132.7635,247.6957c-5.78,-2.16 -12.4,-4.63 -14.72,-5.49c-2.31,-0.87 -8.53,-5.14 -13.81,-9.5c-5.27,-4.37 -9.76,-7.94 -9.97,-7.94s-9.588,-2.02 -20.841,-4.5l-20.46,-4.5l-24.602,0c-13.531,0 -24.601,-0.31 -24.601,-0.69c0,-0.39 2.083,-6.19 4.629,-12.89l4.63,-12.18l7.256,-1.17c7.037,-1.14 7.275,-1.27 7.881,-4.37c0.343,-1.76 1.802,-5.99 3.242,-9.39c2.951,-6.99 1.764,-6.42 18.362,-8.79c18.707,-2.66 17,-1.93 17,-7.3c0,-6.01 13.354,-58.79 24.944,-98.562l8.99,-30.845l8.41,-9.155l8.4,-9.154l12.92,-4.25l12.92,-4.2498l20.79,0l20.79,0l11.83,7.2498l11.82,7.25l10.54,26.5c20.3,51.076 34.25,90.446 36.25,102.3c1.5,8.91 1.59,11.16 0.54,12.85c-0.71,1.13 -1.1,2.23 -0.89,2.44c0.22,0.22 4.19,-0.7 8.82,-2.05l8.42,-2.45l5.04,2.84c3.78,2.14 8.37,3.4 18.5,5.07l13.47,2.23l6.36,9.3l6.37,9.29l-1.58,9.22c-0.87,5.07 -1.79,9.43 -2.05,9.69s-2.59,-1.15 -5.18,-3.13l-4.71,-3.6l-16.74,0l-16.75,0l-17.69,5.02l-17.7,5.02l-12.67,9.83c-6.96,5.41 -20.87,15.3 -30.89,21.99l-18.23,12.14l-17.27,-0.07l-17.27,-0.07l-10.5,-3.93l0,-0.004z" id="path1331"/>
   <path fill="#8c8c8c" d="m173.1835,236.7857c8.15,-5.01 14.97,-8.95 15.17,-8.76c0.2,0.2 -1.4,3.37 -3.55,7.05c-2.16,3.68 -3.69,6.69 -3.42,6.69c0.28,0 7.24,-6.17 15.48,-13.73l14.98,-13.73l20.1,-9.27l20.09,-9.27l20.61,0.01c19.05,0.01 21.41,-0.19 31.12,-2.66c5.77,-1.46 10.83,-2.95 11.24,-3.3s-0.77,-3.78 -2.61,-7.62l-3.35,-7l-9.89,-1.22c-5.44,-0.67 -12.99,-1.22 -16.77,-1.22c-6.58,0.01 -7.45,0.32 -20.25,7.08c-7.36,3.89 -13.37,6.87 -13.37,6.63s5.18,-4.88 11.52,-10.31l11.52,-9.89l-4.94,-0.3c-4.27,-0.25 -6.35,0.41 -15.27,4.87c-5.69,2.84 -15.06,8.02 -20.83,11.52c-8.79,5.32 -11.15,7.31 -14.43,12.14c-2.16,3.17 -8.25,9.82 -13.53,14.77c-7.87,7.39 -12.14,10.4 -23.76,16.8l-14.16,7.79l-8.31,-0.29l-8.31,-0.3l11.42,-2.44c11.04,-2.36 11.68,-2.64 19,-8.42c9.07,-7.16 28.29,-24.75 27.7,-25.34c-0.23,-0.24 -3.5,1.11 -7.27,2.99c-3.77,1.87 -13.84,5.54 -22.38,8.15l-15.53,4.74l-9.97,-1.47c-5.49,-0.81 -10.06,-1.41 -10.16,-1.32c-0.11,0.09 4.08,2.79 9.3,6s9.33,6 9.13,6.2c-1.27,1.27 -26.96,-10.42 -47.24,-21.49c-21.804,-11.91 -24.035,-12.92 -24.339,-10.99c-0.193,1.23 1.042,4.05 2.913,6.65c3.876,5.4 3.236,5.08 -10.342,-5.26c-8.942,-6.8 -11.163,-9.08 -14.849,-15.25c-2.384,-3.98 -4.74,-7.25 -5.237,-7.25c-0.496,0 -5.233,0.71 -10.526,1.57c-8.912,1.46 -9.865,1.84 -12.874,5.17c-1.788,1.98 -3.25,3.88 -3.25,4.23s6.768,5.06 15.041,10.46s14.887,9.98 14.698,10.17c-0.19,0.19 -7.296,-2.41 -15.792,-5.78l-15.447,-6.13l-7.5,4.02c-7.265,3.89 -7.635,4.28 -11.794,12.16l-4.294,8.13l26.294,0.01l26.294,0.02l12.75,3.3c12.658,3.29 12.75,3.29 12.75,1.17c0,-1.31 -3.504,-5.87 -9.125,-11.86c-5.019,-5.34 -8.956,-9.88 -8.75,-10.09c0.206,-0.2 2.528,-0.12 5.159,0.18c4.688,0.53 5.061,0.84 18.5,15.5c15.73,17.16 25.23,24.61 39.93,31.33c9.52,4.36 10,4.46 17.84,4.02l8.05,-0.45l14.82,-9.11zm-0.84,-32.92c13.79,-4.94 36.31,-16.1 52.15,-25.84c11.48,-7.07 12.65,-8.09 19.17,-16.77l6.95,-9.24l-5.36,-18.37c-8.3,-28.47 -19.39,-59.421 -31.05,-86.683l-10.65,-24.889l-9.31,-5.685l-9.32,-5.686l-11.33,0.284l-11.33,0.283l3.5,2.06c1.92,1.133 6.62,3.158 10.44,4.5l6.95,2.44l-12.45,0.319c-9.49,0.243 -15.72,-0.227 -26.25,-1.978l-13.81,-2.297l-8.66,4.478l-8.66,4.478l-7.89,17l-7.89,17l-6.388,35.246c-5.531,30.51 -6.922,36.53 -10.335,44.73l-3.943,9.47l1.256,11.72l1.256,11.72l8.902,8.23l8.902,8.22l18.13,6.57c13.95,5.05 35.52,10.98 45.52,12.51c0.32,0.04 5.49,-1.67 11.5,-3.82z" id="path1341"/>
   <path fill="#000000" d="m152.4835,192.1957l-9.77,-1.33l-10.73,-8.37c-5.9,-4.6 -14.77,-10.69 -19.72,-13.53s-9.56,-5.53 -10.24,-5.98c-0.96,-0.63 0.09,-7.82 4.57,-31.36l5.82,-30.55l8.83,-20.623l8.83,-20.626l4.82,-1.601c2.65,-0.881 5.27,-1.326 5.81,-0.99c0.55,0.337 3.61,3.857 6.81,7.823c4.2,5.21 7.75,11.441 12.78,22.45c3.83,8.377 7.21,15.247 7.5,15.247c0.3,0.01 2.28,-5.95 4.39,-13.236c2.12,-7.287 5.89,-17.853 8.37,-23.48c4.31,-9.751 4.64,-10.201 7.11,-9.611c4.88,1.163 5.86,2.299 13.61,15.837c7.69,13.425 7.81,13.737 12.04,32.05c2.97,12.89 4.63,22.95 5.47,33.22c0.95,11.57 1.73,15.9 3.62,20.16c1.32,2.98 2.06,5.74 1.63,6.13s-4.82,2.5 -9.77,4.69s-17.2,7.65 -27.22,12.12c-17.57,7.85 -18.49,8.14 -26,8.21l-7.78,0.08l6.5,2.34c7.4,2.68 6.4,2.8 -7.28,0.93z" id="path1337"/>
   <path fill="#ff0000" d="m152.2135,109.8957c-1.94,-1.78 -20.71,-13.2 -21.09,-12.82c-0.22,0.21 -0.04,2.82 0.38,5.79l0.77,5.4l8,1.13c10.45,1.47 13.11,1.58 11.94,0.5zm37.45,-0.15c4.08,-0.53 7.62,-1.17 7.88,-1.42c0.75,-0.76 3.08,-11.56 2.49,-11.56c-0.75,0 -21.27,13.13 -21.27,13.61c0,0.59 2.72,0.43 10.9,-0.63z" id="path1335"/>
  </g>
  <ellipse stroke="#000" ry="22" rx="23" id="svg_1" cy="109.5" cx="136.833329" stroke-width="1.5" fill="#000000"/>
  <ellipse ry="13.5" rx="18" id="svg_2" cy="111" cx="194.833328" fill-opacity="null" stroke-opacity="null" stroke-width="1.5" stroke="#000" fill="#000000"/>
 </g>
</svg>